# xmcd
#
# Track frame offsets:
#	150
#	14845
#	30139
#	47578
#	64659
#	82858
#	99297
#	112710
#	134220
#	151295
#	163539
#
# Disc length: 2389 seconds
# Revision: 0
# Processed by: cddbd v1.5.2PL0 Copyright (c) Steve Scherf et al.
# Submitted via: dBpowerAMP V12.0
#
DISCID=7a09530b
DTITLE=Lily and The Drum - Welcome Change
DYEAR=2014
DGENRE=Blues
TTITLE0=Passionate Believer
TTITLE1=I Feel So Free
TTITLE2=Throw Me A Line
TTITLE3=Take Me To The River Or The Sea
TTITLE4=I Think I Know
TTITLE5=Welcome Change
TTITLE6=As A Matter Of Fact
TTITLE7=It's Alright It's Ok
TTITLE8=Just Playing My Guitar
TTITLE9=Vincent And Valerie
TTITLE10=Lets Go
EXTD=
EXTT0=
EXTT1=
EXTT2=
EXTT3=
EXTT4=
EXTT5=
EXTT6=
EXTT7=
EXTT8=
EXTT9=
EXTT10=
PLAYORDER=
